<?xml version="1.0" encoding="UTF-8"?>
<svg xmlns="http://www.w3.org/2000/svg" viewBox="0 0 1800 2800" width="1800" height="2800">
<defs>
<linearGradient id="bg" x1="0" y1="0" x2="0" y2="1"><stop offset="0%" stop-color="#0a0e1a"/><stop offset="100%" stop-color="#0f1525"/></linearGradient>
<filter id="shadow"><feDropShadow dx="0" dy="2" stdDeviation="4" flood-opacity="0.3"/></filter>
</defs>
<rect width="100%" height="100%" fill="url(#bg)"/>
<text x="40" y="45" font-family="system-ui, sans-serif" font-size="22" font-weight="700" fill="#f3f4f6">Optimization Pipeline</text>
<line x1="40" y1="58" x2="400" y2="58" stroke="#06b6d4" stroke-width="2" opacity="0.6"/>
<text x="900.0" y="90" text-anchor="middle" font-family="system-ui" font-size="28" font-weight="700" fill="#f3f4f6">Optimization Pipeline</text>
<text x="900.0" y="118" text-anchor="middle" font-family="monospace" font-size="12" fill="#9ca3af">3 iterations · 0.977 convergence · 309/313 assertions</text>
<rect x="600" y="155" width="600" height="68" rx="8" fill="#111827" stroke="#6b7280" stroke-opacity="0.3" filter="url(#shadow)"/>
<text x="900" y="179" text-anchor="middle" font-family="monospace" font-size="12" font-weight="700" fill="#6b7280">Input Data</text>
<text x="900" y="197" text-anchor="middle" font-family="monospace" font-size="9" fill="#9ca3af">Ports, Fleet, Demand, Distances</text>
<text x="900" y="213" text-anchor="middle" font-family="monospace" font-size="8" fill="#6b7280">CSV files · NetworkLoader</text>
<line x1="900" y1="223" x2="900" y2="253" stroke="#06b6d4" stroke-width="1.5" stroke-dasharray="6,3" opacity="0.5"/>
<polygon points="894,249 900,253 894,257" fill="#06b6d4" opacity="0.5"/>
<rect x="600" y="253" width="600" height="68" rx="8" fill="#111827" stroke="#06b6d4" stroke-opacity="0.3" filter="url(#shadow)"/>
<text x="900" y="277" text-anchor="middle" font-family="monospace" font-size="12" font-weight="700" fill="#06b6d4">Regional Splitter</text>
<text x="900" y="295" text-anchor="middle" font-family="monospace" font-size="9" fill="#9ca3af">435 ports -> 5 regions</text>
<text x="900" y="311" text-anchor="middle" font-family="monospace" font-size="8" fill="#6b7280">K-means · PortClustering</text>
<line x1="900" y1="321" x2="900" y2="351" stroke="#06b6d4" stroke-width="1.5" stroke-dasharray="6,3" opacity="0.5"/>
<polygon points="894,347 900,351 894,355" fill="#06b6d4" opacity="0.5"/>
<rect x="600" y="351" width="600" height="68" rx="8" fill="#111827" stroke="#10b981" stroke-opacity="0.3" filter="url(#shadow)"/>
<text x="900" y="375" text-anchor="middle" font-family="monospace" font-size="12" font-weight="700" fill="#10b981">Regional Agents</text>
<text x="900" y="393" text-anchor="middle" font-family="monospace" font-size="9" fill="#9ca3af">Parallel GA + MILP</text>
<text x="900" y="409" text-anchor="middle" font-family="monospace" font-size="8" fill="#6b7280">ThreadPoolExecutor · 5 parallel</text>
<line x1="900" y1="419" x2="900" y2="449" stroke="#06b6d4" stroke-width="1.5" stroke-dasharray="6,3" opacity="0.5"/>
<polygon points="894,445 900,449 894,453" fill="#06b6d4" opacity="0.5"/>
<rect x="600" y="449" width="600" height="68" rx="8" fill="#111827" stroke="#8b5cf6" stroke-opacity="0.3" filter="url(#shadow)"/>
<text x="900" y="473" text-anchor="middle" font-family="monospace" font-size="12" font-weight="700" fill="#8b5cf6">Service Generator</text>
<text x="900" y="491" text-anchor="middle" font-family="monospace" font-size="9" fill="#9ca3af">744-875 candidates/region</text>
<text x="900" y="507" text-anchor="middle" font-family="monospace" font-size="8" fill="#6b7280">CandidateServiceGenerator</text>
<line x1="900" y1="517" x2="900" y2="547" stroke="#06b6d4" stroke-width="1.5" stroke-dasharray="6,3" opacity="0.5"/>
<polygon points="894,543 900,547 894,551" fill="#06b6d4" opacity="0.5"/>
<rect x="600" y="547" width="600" height="68" rx="8" fill="#111827" stroke="#06b6d4" stroke-opacity="0.3" filter="url(#shadow)"/>
<text x="900" y="571" text-anchor="middle" font-family="monospace" font-size="12" font-weight="700" fill="#06b6d4">Hierarchical GA</text>
<text x="900" y="589" text-anchor="middle" font-family="monospace" font-size="9" fill="#9ca3af">L1: Service · L2: Frequency</text>
<text x="900" y="605" text-anchor="middle" font-family="monospace" font-size="8" fill="#6b7280">ServiceGA · FrequencyGA</text>
<line x1="900" y1="615" x2="900" y2="645" stroke="#06b6d4" stroke-width="1.5" stroke-dasharray="6,3" opacity="0.5"/>
<polygon points="894,641 900,645 894,649" fill="#06b6d4" opacity="0.5"/>
<rect x="600" y="645" width="600" height="68" rx="8" fill="#111827" stroke="#10b981" stroke-opacity="0.3" filter="url(#shadow)"/>
<text x="900" y="669" text-anchor="middle" font-family="monospace" font-size="12" font-weight="700" fill="#10b981">Hub MILP Optimizer</text>
<text x="900" y="687" text-anchor="middle" font-family="monospace" font-size="9" fill="#9ca3af">Flow · Fleet assignment</text>
<text x="900" y="703" text-anchor="middle" font-family="monospace" font-size="8" fill="#6b7280">HubMILP</text>
<line x1="900" y1="713" x2="900" y2="743" stroke="#06b6d4" stroke-width="1.5" stroke-dasharray="6,3" opacity="0.5"/>
<polygon points="894,739 900,743 894,747" fill="#06b6d4" opacity="0.5"/>
<rect x="600" y="743" width="600" height="68" rx="8" fill="#111827" stroke="#f59e0b" stroke-opacity="0.3" filter="url(#shadow)"/>
<text x="900" y="767" text-anchor="middle" font-family="monospace" font-size="12" font-weight="700" fill="#f59e0b">Regional Output</text>
<text x="900" y="785" text-anchor="middle" font-family="monospace" font-size="9" fill="#9ca3af">Profit, Coverage, Services</text>
<text x="900" y="801" text-anchor="middle" font-family="monospace" font-size="8" fill="#6b7280">RegionalAgent._solve_region()</text>
<line x1="900" y1="811" x2="900" y2="841" stroke="#06b6d4" stroke-width="1.5" stroke-dasharray="6,3" opacity="0.5"/>
<polygon points="894,837 900,841 894,845" fill="#06b6d4" opacity="0.5"/>
<rect x="600" y="841" width="600" height="68" rx="8" fill="#111827" stroke="#8b5cf6" stroke-opacity="0.3" filter="url(#shadow)"/>
<text x="900" y="865" text-anchor="middle" font-family="monospace" font-size="12" font-weight="700" fill="#8b5cf6">Coordinator Agent</text>
<text x="900" y="883" text-anchor="middle" font-family="monospace" font-size="9" fill="#9ca3af">LLM eval · Conflict detect</text>
<text x="900" y="899" text-anchor="middle" font-family="monospace" font-size="8" fill="#6b7280">GPT-OSS-120B</text>
<line x1="900" y1="909" x2="900" y2="939" stroke="#06b6d4" stroke-width="1.5" stroke-dasharray="6,3" opacity="0.5"/>
<polygon points="894,935 900,939 894,943" fill="#06b6d4" opacity="0.5"/>
<rect x="600" y="939" width="600" height="68" rx="8" fill="#111827" stroke="#ef4444" stroke-opacity="0.3" filter="url(#shadow)"/>
<text x="900" y="963" text-anchor="middle" font-family="monospace" font-size="12" font-weight="700" fill="#ef4444">Feedback Loop</text>
<text x="900" y="981" text-anchor="middle" font-family="monospace" font-size="9" fill="#9ca3af">Coverage gap 4.92pp</text>
<text x="900" y="997" text-anchor="middle" font-family="monospace" font-size="8" fill="#6b7280">3/3 iterations</text>
<line x1="900" y1="1007" x2="900" y2="1037" stroke="#06b6d4" stroke-width="1.5" stroke-dasharray="6,3" opacity="0.5"/>
<polygon points="894,1033 900,1037 894,1041" fill="#06b6d4" opacity="0.5"/>
<rect x="600" y="1037" width="600" height="68" rx="8" fill="#111827" stroke="#f59e0b" stroke-opacity="0.3" filter="url(#shadow)"/>
<text x="900" y="1061" text-anchor="middle" font-family="monospace" font-size="12" font-weight="700" fill="#f59e0b">Consensus Engine</text>
<text x="900" y="1079" text-anchor="middle" font-family="monospace" font-size="9" fill="#9ca3af">100% confidence</text>
<text x="900" y="1095" text-anchor="middle" font-family="monospace" font-size="8" fill="#6b7280">Weighted voting · Reconciliation</text>
<line x1="900" y1="1105" x2="900" y2="1135" stroke="#06b6d4" stroke-width="1.5" stroke-dasharray="6,3" opacity="0.5"/>
<polygon points="894,1131 900,1135 894,1139" fill="#06b6d4" opacity="0.5"/>
<rect x="600" y="1135" width="600" height="68" rx="8" fill="#111827" stroke="#10b981" stroke-opacity="0.3" filter="url(#shadow)"/>
<text x="900" y="1159" text-anchor="middle" font-family="monospace" font-size="12" font-weight="700" fill="#10b981">Final Validation</text>
<text x="900" y="1177" text-anchor="middle" font-family="monospace" font-size="9" fill="#9ca3af">Fleet ≤300 · EBIT · Flow</text>
<text x="900" y="1193" text-anchor="middle" font-family="monospace" font-size="8" fill="#6b7280">Validators (3)</text>
<line x1="900" y1="1203" x2="900" y2="1233" stroke="#06b6d4" stroke-width="1.5" stroke-dasharray="6,3" opacity="0.5"/>
<polygon points="894,1229 900,1233 894,1237" fill="#06b6d4" opacity="0.5"/>
<rect x="600" y="1233" width="600" height="68" rx="8" fill="#111827" stroke="#06b6d4" stroke-opacity="0.3" filter="url(#shadow)"/>
<text x="900" y="1257" text-anchor="middle" font-family="monospace" font-size="12" font-weight="700" fill="#06b6d4">pipeline_output.json</text>
<text x="900" y="1275" text-anchor="middle" font-family="monospace" font-size="9" fill="#9ca3af">511 services · $901.7M/wk</text>
<text x="900" y="1291" text-anchor="middle" font-family="monospace" font-size="8" fill="#6b7280">309/313 asserts</text>
<line x1="900" y1="1301" x2="900" y2="1331" stroke="#06b6d4" stroke-width="1.5" stroke-dasharray="6,3" opacity="0.5"/>
<polygon points="894,1327 900,1331 894,1335" fill="#06b6d4" opacity="0.5"/>
<rect x="600" y="1331" width="600" height="68" rx="8" fill="#111827" stroke="#10b981" stroke-opacity="0.3" filter="url(#shadow)"/>
<text x="900" y="1355" text-anchor="middle" font-family="monospace" font-size="12" font-weight="700" fill="#10b981">React Dashboard</text>
<text x="900" y="1373" text-anchor="middle" font-family="monospace" font-size="9" fill="#9ca3af">33 components · 14 tabs</text>
<text x="900" y="1389" text-anchor="middle" font-family="monospace" font-size="8" fill="#6b7280">runtimeAdapter.js · WebSocket</text>
</svg>