<?xml version="1.0" encoding="UTF-8"?>
<svg xmlns="http://www.w3.org/2000/svg" viewBox="0 0 1400 2200" width="1400" height="2200">
<defs>
<linearGradient id="bg" x1="0" y1="0" x2="0" y2="1"><stop offset="0%" stop-color="#0a0e1a"/><stop offset="100%" stop-color="#0f1525"/></linearGradient>
<filter id="shadow"><feDropShadow dx="0" dy="2" stdDeviation="4" flood-opacity="0.3"/></filter>
</defs>
<rect width="100%" height="100%" fill="url(#bg)"/>
<text x="40" y="45" font-family="system-ui, sans-serif" font-size="22" font-weight="700" fill="#f3f4f6">Runtime Data Flow</text>
<line x1="40" y1="58" x2="400" y2="58" stroke="#06b6d4" stroke-width="2" opacity="0.6"/>
<text x="700.0" y="90" text-anchor="middle" font-family="system-ui" font-size="26" font-weight="700" fill="#f3f4f6">Runtime Data Flow</text>
<text x="700.0" y="115" text-anchor="middle" font-family="monospace" font-size="11" fill="#9ca3af">From CSV files to dashboard — every field traced to pipeline_output.json</text>
<rect x="450" y="145" width="500" height="58" rx="7" fill="#111827" stroke="#6b7280" stroke-opacity="0.3" filter="url(#shadow)"/>
<text x="700" y="168" text-anchor="middle" font-family="monospace" font-size="12" font-weight="700" fill="#6b7280">CSV Data Sources</text>
<text x="700" y="188" text-anchor="middle" font-family="monospace" font-size="8" fill="#9ca3af">ports.csv · demand.csv · fleet.csv</text>
<line x1="700" y1="203" x2="700" y2="218" stroke="#06b6d4" stroke-width="1.5" stroke-dasharray="6,3" opacity="0.5"/>
<polygon points="694,214 700,218 694,222" fill="#06b6d4" opacity="0.5"/>
<rect x="450" y="218" width="500" height="58" rx="7" fill="#111827" stroke="#06b6d4" stroke-opacity="0.3" filter="url(#shadow)"/>
<text x="700" y="241" text-anchor="middle" font-family="monospace" font-size="12" font-weight="700" fill="#06b6d4">NetworkLoader</text>
<text x="700" y="261" text-anchor="middle" font-family="monospace" font-size="8" fill="#9ca3af">network_loader.py · shipproblem.py</text>
<line x1="700" y1="276" x2="700" y2="291" stroke="#06b6d4" stroke-width="1.5" stroke-dasharray="6,3" opacity="0.5"/>
<polygon points="694,287 700,291 694,295" fill="#06b6d4" opacity="0.5"/>
<rect x="450" y="291" width="500" height="58" rx="7" fill="#111827" stroke="#06b6d4" stroke-opacity="0.3" filter="url(#shadow)"/>
<text x="700" y="314" text-anchor="middle" font-family="monospace" font-size="12" font-weight="700" fill="#06b6d4">ShippingProblem</text>
<text x="700" y="334" text-anchor="middle" font-family="monospace" font-size="8" fill="#9ca3af">435 ports · 9,622 lanes · 6 vessel classes</text>
<line x1="700" y1="349" x2="700" y2="364" stroke="#06b6d4" stroke-width="1.5" stroke-dasharray="6,3" opacity="0.5"/>
<polygon points="694,360 700,364 694,368" fill="#06b6d4" opacity="0.5"/>
<rect x="450" y="364" width="500" height="58" rx="7" fill="#111827" stroke="#10b981" stroke-opacity="0.3" filter="url(#shadow)"/>
<text x="700" y="387" text-anchor="middle" font-family="monospace" font-size="12" font-weight="700" fill="#10b981">Regional Splitter</text>
<text x="700" y="407" text-anchor="middle" font-family="monospace" font-size="8" fill="#9ca3af">splitter.py — K-means · 5 sub-problems</text>
<line x1="700" y1="422" x2="700" y2="437" stroke="#06b6d4" stroke-width="1.5" stroke-dasharray="6,3" opacity="0.5"/>
<polygon points="694,433 700,437 694,441" fill="#06b6d4" opacity="0.5"/>
<rect x="450" y="437" width="500" height="58" rx="7" fill="#111827" stroke="#10b981" stroke-opacity="0.3" filter="url(#shadow)"/>
<text x="700" y="460" text-anchor="middle" font-family="monospace" font-size="12" font-weight="700" fill="#10b981">Regional Agents</text>
<text x="700" y="480" text-anchor="middle" font-family="monospace" font-size="8" fill="#9ca3af">5 parallel regional_agent.py runs</text>
<line x1="700" y1="495" x2="700" y2="510" stroke="#06b6d4" stroke-width="1.5" stroke-dasharray="6,3" opacity="0.5"/>
<polygon points="694,506 700,510 694,514" fill="#06b6d4" opacity="0.5"/>
<rect x="450" y="510" width="500" height="58" rx="7" fill="#111827" stroke="#f59e0b" stroke-opacity="0.3" filter="url(#shadow)"/>
<text x="700" y="533" text-anchor="middle" font-family="monospace" font-size="12" font-weight="700" fill="#f59e0b">Regional Results</text>
<text x="700" y="553" text-anchor="middle" font-family="monospace" font-size="8" fill="#9ca3af">profit, coverage, services, hubs</text>
<line x1="700" y1="568" x2="700" y2="583" stroke="#06b6d4" stroke-width="1.5" stroke-dasharray="6,3" opacity="0.5"/>
<polygon points="694,579 700,583 694,587" fill="#06b6d4" opacity="0.5"/>
<rect x="450" y="583" width="500" height="58" rx="7" fill="#111827" stroke="#8b5cf6" stroke-opacity="0.3" filter="url(#shadow)"/>
<text x="700" y="606" text-anchor="middle" font-family="monospace" font-size="12" font-weight="700" fill="#8b5cf6">Coordinator Agent</text>
<text x="700" y="626" text-anchor="middle" font-family="monospace" font-size="8" fill="#9ca3af">coordinator_agent.py — LLM decisions</text>
<line x1="700" y1="641" x2="700" y2="656" stroke="#06b6d4" stroke-width="1.5" stroke-dasharray="6,3" opacity="0.5"/>
<polygon points="694,652 700,656 694,660" fill="#06b6d4" opacity="0.5"/>
<rect x="450" y="656" width="500" height="58" rx="7" fill="#111827" stroke="#f59e0b" stroke-opacity="0.3" filter="url(#shadow)"/>
<text x="700" y="679" text-anchor="middle" font-family="monospace" font-size="12" font-weight="700" fill="#f59e0b">Consensus Engine</text>
<text x="700" y="699" text-anchor="middle" font-family="monospace" font-size="8" fill="#9ca3af">consensus_engine.py — weighted voting</text>
<line x1="700" y1="714" x2="700" y2="729" stroke="#06b6d4" stroke-width="1.5" stroke-dasharray="6,3" opacity="0.5"/>
<polygon points="694,725 700,729 694,733" fill="#06b6d4" opacity="0.5"/>
<rect x="450" y="729" width="500" height="58" rx="7" fill="#111827" stroke="#8b5cf6" stroke-opacity="0.3" filter="url(#shadow)"/>
<text x="700" y="752" text-anchor="middle" font-family="monospace" font-size="12" font-weight="700" fill="#8b5cf6">Shared Context</text>
<text x="700" y="772" text-anchor="middle" font-family="monospace" font-size="8" fill="#9ca3af">shared_context.py — global objectives</text>
<line x1="700" y1="787" x2="700" y2="802" stroke="#06b6d4" stroke-width="1.5" stroke-dasharray="6,3" opacity="0.5"/>
<polygon points="694,798 700,802 694,806" fill="#06b6d4" opacity="0.5"/>
<rect x="450" y="802" width="500" height="58" rx="7" fill="#111827" stroke="#10b981" stroke-opacity="0.3" filter="url(#shadow)"/>
<text x="700" y="825" text-anchor="middle" font-family="monospace" font-size="12" font-weight="700" fill="#10b981">Global Validation</text>
<text x="700" y="845" text-anchor="middle" font-family="monospace" font-size="8" fill="#9ca3af">3 validators — weight, archetype, policy</text>
<line x1="700" y1="860" x2="700" y2="875" stroke="#06b6d4" stroke-width="1.5" stroke-dasharray="6,3" opacity="0.5"/>
<polygon points="694,871 700,875 694,879" fill="#06b6d4" opacity="0.5"/>
<rect x="450" y="875" width="500" height="58" rx="7" fill="#111827" stroke="#06b6d4" stroke-opacity="0.3" filter="url(#shadow)"/>
<text x="700" y="898" text-anchor="middle" font-family="monospace" font-size="12" font-weight="700" fill="#06b6d4">pipeline_output.json</text>
<text x="700" y="918" text-anchor="middle" font-family="monospace" font-size="8" fill="#9ca3af">309/313 assertions · 511 services</text>
<line x1="700" y1="933" x2="700" y2="948" stroke="#06b6d4" stroke-width="1.5" stroke-dasharray="6,3" opacity="0.5"/>
<polygon points="694,944 700,948 694,952" fill="#06b6d4" opacity="0.5"/>
<rect x="450" y="948" width="500" height="58" rx="7" fill="#111827" stroke="#06b6d4" stroke-opacity="0.3" filter="url(#shadow)"/>
<text x="700" y="971" text-anchor="middle" font-family="monospace" font-size="12" font-weight="700" fill="#06b6d4">Runtime Adapter</text>
<text x="700" y="991" text-anchor="middle" font-family="monospace" font-size="8" fill="#9ca3af">runtimeAdapter.js — normalizeGlobal()</text>
<line x1="700" y1="1006" x2="700" y2="1021" stroke="#06b6d4" stroke-width="1.5" stroke-dasharray="6,3" opacity="0.5"/>
<polygon points="694,1017 700,1021 694,1025" fill="#06b6d4" opacity="0.5"/>
<rect x="450" y="1021" width="500" height="58" rx="7" fill="#111827" stroke="#10b981" stroke-opacity="0.3" filter="url(#shadow)"/>
<text x="700" y="1044" text-anchor="middle" font-family="monospace" font-size="12" font-weight="700" fill="#10b981">React State</text>
<text x="700" y="1064" text-anchor="middle" font-family="monospace" font-size="8" fill="#9ca3af">useOptimizationState.js — single state source</text>
<line x1="700" y1="1079" x2="700" y2="1094" stroke="#06b6d4" stroke-width="1.5" stroke-dasharray="6,3" opacity="0.5"/>
<polygon points="694,1090 700,1094 694,1098" fill="#06b6d4" opacity="0.5"/>
<rect x="450" y="1094" width="500" height="58" rx="7" fill="#111827" stroke="#10b981" stroke-opacity="0.3" filter="url(#shadow)"/>
<text x="700" y="1117" text-anchor="middle" font-family="monospace" font-size="12" font-weight="700" fill="#10b981">Dashboard</text>
<text x="700" y="1137" text-anchor="middle" font-family="monospace" font-size="8" fill="#9ca3af">33 components · 14 tabs · WebSocket live</text>
</svg>