<?xml version="1.0" encoding="UTF-8"?>
<svg xmlns="http://www.w3.org/2000/svg" viewBox="0 0 2400 1600" width="2400" height="1600">
<defs>
<linearGradient id="bg" x1="0" y1="0" x2="0" y2="1"><stop offset="0%" stop-color="#0a0e1a"/><stop offset="100%" stop-color="#0f1525"/></linearGradient>
<filter id="shadow"><feDropShadow dx="0" dy="2" stdDeviation="4" flood-opacity="0.3"/></filter>
</defs>
<rect width="100%" height="100%" fill="url(#bg)"/>
<text x="40" y="45" font-family="system-ui, sans-serif" font-size="22" font-weight="700" fill="#f3f4f6">System Architecture</text>
<line x1="40" y1="58" x2="400" y2="58" stroke="#06b6d4" stroke-width="2" opacity="0.6"/>
<text x="1200.0" y="90" text-anchor="middle" font-family="system-ui" font-size="30" font-weight="700" fill="#f3f4f6">AI Vessel Routing System — Architecture</text>
<rect x="710" y="150" width="180" height="55" rx="8" fill="#111827" stroke="#06b6d4" stroke-opacity="0.3" filter="url(#shadow)"/>
<text x="800.0" y="172.5" text-anchor="middle" font-family="monospace" font-size="11" font-weight="700" fill="#06b6d4">Ports CSV</text>
<text x="800.0" y="189.5" text-anchor="middle" font-family="monospace" font-size="8" fill="#9ca3af">435 ports</text>
<rect x="910" y="150" width="180" height="55" rx="8" fill="#111827" stroke="#10b981" stroke-opacity="0.3" filter="url(#shadow)"/>
<text x="1000.0" y="172.5" text-anchor="middle" font-family="monospace" font-size="11" font-weight="700" fill="#10b981">Fleet CSV</text>
<text x="1000.0" y="189.5" text-anchor="middle" font-family="monospace" font-size="8" fill="#9ca3af">6 classes</text>
<rect x="1110" y="150" width="180" height="55" rx="8" fill="#111827" stroke="#8b5cf6" stroke-opacity="0.3" filter="url(#shadow)"/>
<text x="1200.0" y="172.5" text-anchor="middle" font-family="monospace" font-size="11" font-weight="700" fill="#8b5cf6">Demand CSV</text>
<text x="1200.0" y="189.5" text-anchor="middle" font-family="monospace" font-size="8" fill="#9ca3af">9K lanes</text>
<rect x="1310" y="150" width="180" height="55" rx="8" fill="#111827" stroke="#f59e0b" stroke-opacity="0.3" filter="url(#shadow)"/>
<text x="1400.0" y="172.5" text-anchor="middle" font-family="monospace" font-size="11" font-weight="700" fill="#f59e0b">Distance Mat.</text>
<text x="1400.0" y="189.5" text-anchor="middle" font-family="monospace" font-size="8" fill="#9ca3af">62K pairs</text>
<rect x="1510" y="150" width="180" height="55" rx="8" fill="#111827" stroke="#6b7280" stroke-opacity="0.3" filter="url(#shadow)"/>
<text x="1600.0" y="172.5" text-anchor="middle" font-family="monospace" font-size="11" font-weight="700" fill="#6b7280">Economic Params</text>
<text x="1600.0" y="189.5" text-anchor="middle" font-family="monospace" font-size="8" fill="#9ca3af">Cost model</text>
<text x="20" y="178" text-anchor="middle" font-family="monospace" font-size="9" fill="#06b6d4" transform="rotate(-90,20,178)">DATA</text>
<line x1="1200" y1="205" x2="1200" y2="240" stroke="#06b6d4" stroke-width="1.5" stroke-dasharray="6,3" opacity="0.5"/>
<polygon points="1194,236 1200,240 1194,244" fill="#06b6d4" opacity="0.5"/>
<rect x="950" y="240" width="500" height="50" rx="8" fill="#111827" stroke="#06b6d4" stroke-opacity="0.3" filter="url(#shadow)"/>
<text x="1200.0" y="260.0" text-anchor="middle" font-family="monospace" font-size="11" font-weight="700" fill="#06b6d4">ETL / Preprocessing</text>
<text x="1200.0" y="277.0" text-anchor="middle" font-family="monospace" font-size="8" fill="#9ca3af">Pydantic · K-means · FFE→TEU</text>
<text x="20" y="265" text-anchor="middle" font-family="monospace" font-size="9" fill="#10b981" transform="rotate(-90,20,265)">PROCESS</text>
<line x1="1200" y1="290" x2="1200" y2="330" stroke="#06b6d4" stroke-width="1.5" stroke-dasharray="6,3" opacity="0.5"/>
<polygon points="1194,326 1200,330 1194,334" fill="#06b6d4" opacity="0.5"/>
<rect x="1020" y="330" width="360" height="50" rx="8" fill="#111827" stroke="#8b5cf6" stroke-opacity="0.3" filter="url(#shadow)"/>
<text x="1200.0" y="350.0" text-anchor="middle" font-family="monospace" font-size="11" font-weight="700" fill="#8b5cf6">Global Orchestrator</text>
<text x="1200.0" y="367.0" text-anchor="middle" font-family="monospace" font-size="8" fill="#9ca3af">Iteration loop · Weight tuning</text>
<text x="20" y="355" text-anchor="middle" font-family="monospace" font-size="9" fill="#8b5cf6" transform="rotate(-90,20,355)">ORCHESTRATOR</text>
<line x1="1000" y1="380" x2="1000" y2="410" stroke="#06b6d4" stroke-width="1.5" stroke-dasharray="6,3" opacity="0.5"/>
<polygon points="994,406 1000,410 994,414" fill="#06b6d4" opacity="0.5"/>
<line x1="1400" y1="380" x2="1400" y2="410" stroke="#06b6d4" stroke-width="1.5" stroke-dasharray="6,3" opacity="0.5"/>
<polygon points="1394,406 1400,410 1394,414" fill="#06b6d4" opacity="0.5"/>
<rect x="800" y="410" width="350" height="50" rx="8" fill="#111827" stroke="#06b6d4" stroke-opacity="0.3" filter="url(#shadow)"/>
<text x="975.0" y="430.0" text-anchor="middle" font-family="monospace" font-size="11" font-weight="700" fill="#06b6d4">Coordinator Agent (LLM)</text>
<text x="975.0" y="447.0" text-anchor="middle" font-family="monospace" font-size="8" fill="#9ca3af">Conflict · Feedback · Eval</text>
<rect x="1250" y="410" width="350" height="50" rx="8" fill="#111827" stroke="#10b981" stroke-opacity="0.3" filter="url(#shadow)"/>
<text x="1425.0" y="430.0" text-anchor="middle" font-family="monospace" font-size="11" font-weight="700" fill="#10b981">Regional Splitter</text>
<text x="1425.0" y="447.0" text-anchor="middle" font-family="monospace" font-size="8" fill="#9ca3af">K-means · 5 regions</text>
<rect x="360" y="490" width="320" height="130" rx="8" fill="#111827" stroke="#06b6d4" stroke-opacity="0.3" filter="url(#shadow)"/>
<text x="370" y="510" font-family="monospace" font-size="10" font-weight="700" fill="#06b6d4">Asia Agent</text>
<text x="370" y="528" font-family="monospace" font-size="8" fill="#9ca3af">Service Generator</text>
<text x="370" y="544" font-family="monospace" font-size="8" fill="#9ca3af">GA · MILP · Validators</text>
<text x="370" y="562" font-family="monospace" font-size="8" fill="#9ca3af">Regional Output</text>
<text x="670" y="600" font-family="monospace" font-size="8" text-anchor="end" fill="#06b6d4">107 svc · $81M</text>
<rect x="700" y="490" width="320" height="130" rx="8" fill="#111827" stroke="#8b5cf6" stroke-opacity="0.3" filter="url(#shadow)"/>
<text x="710" y="510" font-family="monospace" font-size="10" font-weight="700" fill="#8b5cf6">Europe Agent</text>
<text x="710" y="528" font-family="monospace" font-size="8" fill="#9ca3af">Service Generator</text>
<text x="710" y="544" font-family="monospace" font-size="8" fill="#9ca3af">GA · MILP · Validators</text>
<text x="710" y="562" font-family="monospace" font-size="8" fill="#9ca3af">Regional Output</text>
<text x="1010" y="600" font-family="monospace" font-size="8" text-anchor="end" fill="#8b5cf6">92 svc · $-32M</text>
<rect x="1040" y="490" width="320" height="130" rx="8" fill="#111827" stroke="#10b981" stroke-opacity="0.3" filter="url(#shadow)"/>
<text x="1050" y="510" font-family="monospace" font-size="10" font-weight="700" fill="#10b981">Americas Agent</text>
<text x="1050" y="528" font-family="monospace" font-size="8" fill="#9ca3af">Service Generator</text>
<text x="1050" y="544" font-family="monospace" font-size="8" fill="#9ca3af">GA · MILP · Validators</text>
<text x="1050" y="562" font-family="monospace" font-size="8" fill="#9ca3af">Regional Output</text>
<text x="1350" y="600" font-family="monospace" font-size="8" text-anchor="end" fill="#10b981">91 svc · $815M</text>
<rect x="1380" y="490" width="320" height="130" rx="8" fill="#111827" stroke="#f59e0b" stroke-opacity="0.3" filter="url(#shadow)"/>
<text x="1390" y="510" font-family="monospace" font-size="10" font-weight="700" fill="#f59e0b">Middle East Agent</text>
<text x="1390" y="528" font-family="monospace" font-size="8" fill="#9ca3af">Service Generator</text>
<text x="1390" y="544" font-family="monospace" font-size="8" fill="#9ca3af">GA · MILP · Validators</text>
<text x="1390" y="562" font-family="monospace" font-size="8" fill="#9ca3af">Regional Output</text>
<text x="1690" y="600" font-family="monospace" font-size="8" text-anchor="end" fill="#f59e0b">117 svc · $-89M</text>
<rect x="1720" y="490" width="320" height="130" rx="8" fill="#111827" stroke="#ef4444" stroke-opacity="0.3" filter="url(#shadow)"/>
<text x="1730" y="510" font-family="monospace" font-size="10" font-weight="700" fill="#ef4444">Africa Agent</text>
<text x="1730" y="528" font-family="monospace" font-size="8" fill="#9ca3af">Service Generator</text>
<text x="1730" y="544" font-family="monospace" font-size="8" fill="#9ca3af">GA · MILP · Validators</text>
<text x="1730" y="562" font-family="monospace" font-size="8" fill="#9ca3af">Regional Output</text>
<text x="2030" y="600" font-family="monospace" font-size="8" text-anchor="end" fill="#ef4444">104 svc · $127M</text>
<text x="20" y="555" text-anchor="middle" font-family="monospace" font-size="9" fill="#10b981" transform="rotate(-90,20,555)">REGIONAL (PARALLEL)</text>
<line x1="1000" y1="620" x2="1000" y2="620" stroke="#06b6d4" stroke-width="1.5" stroke-dasharray="6,3" opacity="0.5"/>
<polygon points="994,616 1000,620 994,624" fill="#06b6d4" opacity="0.5"/>
<line x1="1400" y1="620" x2="1400" y2="620" stroke="#06b6d4" stroke-width="1.5" stroke-dasharray="6,3" opacity="0.5"/>
<polygon points="1394,616 1400,620 1394,624" fill="#06b6d4" opacity="0.5"/>
<rect x="780" y="620" width="250" height="50" rx="8" fill="#111827" stroke="#f59e0b" stroke-opacity="0.3" filter="url(#shadow)"/>
<text x="905.0" y="640.0" text-anchor="middle" font-family="monospace" font-size="11" font-weight="700" fill="#f59e0b">Consensus Engine</text>
<text x="905.0" y="657.0" text-anchor="middle" font-family="monospace" font-size="8" fill="#9ca3af">Weight voting · Confidence</text>
<rect x="1075" y="620" width="250" height="50" rx="8" fill="#111827" stroke="#8b5cf6" stroke-opacity="0.3" filter="url(#shadow)"/>
<text x="1200.0" y="640.0" text-anchor="middle" font-family="monospace" font-size="11" font-weight="700" fill="#8b5cf6">Shared Context</text>
<text x="1200.0" y="657.0" text-anchor="middle" font-family="monospace" font-size="8" fill="#9ca3af">Objectives · Hub strategy</text>
<rect x="1370" y="620" width="250" height="50" rx="8" fill="#111827" stroke="#10b981" stroke-opacity="0.3" filter="url(#shadow)"/>
<text x="1495.0" y="640.0" text-anchor="middle" font-family="monospace" font-size="11" font-weight="700" fill="#10b981">Validators</text>
<text x="1495.0" y="657.0" text-anchor="middle" font-family="monospace" font-size="8" fill="#9ca3af">Weight · Archetype · Policy</text>
<line x1="1200" y1="670" x2="1200" y2="705" stroke="#06b6d4" stroke-width="1.5" stroke-dasharray="6,3" opacity="0.5"/>
<polygon points="1194,701 1200,705 1194,709" fill="#06b6d4" opacity="0.5"/>
<rect x="950" y="705" width="500" height="50" rx="8" fill="#111827" stroke="#06b6d4" stroke-opacity="0.3" filter="url(#shadow)"/>
<text x="1200.0" y="725.0" text-anchor="middle" font-family="monospace" font-size="11" font-weight="700" fill="#06b6d4">pipeline_output.json</text>
<text x="1200.0" y="742.0" text-anchor="middle" font-family="monospace" font-size="8" fill="#9ca3af">309/313 · 511 svc</text>
<line x1="1200" y1="755" x2="1200" y2="790" stroke="#06b6d4" stroke-width="1.5" stroke-dasharray="6,3" opacity="0.5"/>
<polygon points="1194,786 1200,790 1194,794" fill="#06b6d4" opacity="0.5"/>
<rect x="950" y="790" width="500" height="50" rx="8" fill="#111827" stroke="#10b981" stroke-opacity="0.3" filter="url(#shadow)"/>
<text x="1200.0" y="810.0" text-anchor="middle" font-family="monospace" font-size="11" font-weight="700" fill="#10b981">Runtime Adapter + React Dashboard</text>
<text x="1200.0" y="827.0" text-anchor="middle" font-family="monospace" font-size="8" fill="#9ca3af">33 components · 14 tabs · WebSocket</text>
<rect x="60" y="1520" width="550" height="50" rx="6" fill="#111827" stroke="#1f2937"/><text x="75" y="1545" font-family="monospace" font-size="9" font-weight="700" fill="#f3f4f6">Legend:</text>
<rect x="170" y="1535" width="10" height="10" rx="2" fill="#06b6d4"/><text x="185" y="1544" font-family="monospace" font-size="8" fill="#9ca3af">Decision</text>
<rect x="265" y="1535" width="10" height="10" rx="2" fill="#10b981"/><text x="280" y="1544" font-family="monospace" font-size="8" fill="#9ca3af">Optimization</text>
<rect x="360" y="1535" width="10" height="10" rx="2" fill="#f59e0b"/><text x="375" y="1544" font-family="monospace" font-size="8" fill="#9ca3af">Validation</text>
<rect x="455" y="1535" width="10" height="10" rx="2" fill="#8b5cf6"/><text x="470" y="1544" font-family="monospace" font-size="8" fill="#9ca3af">AI/ML</text>
<rect x="550" y="1535" width="10" height="10" rx="2" fill="#ef4444"/><text x="565" y="1544" font-family="monospace" font-size="8" fill="#9ca3af">Feedback</text>
</svg>