<?xml version="1.0" encoding="UTF-8"?>
<svg xmlns="http://www.w3.org/2000/svg" viewBox="0 0 1200 900" width="1200" height="900">
<defs>
<linearGradient id="bg" x1="0" y1="0" x2="0" y2="1"><stop offset="0%" stop-color="#0a0e1a"/><stop offset="100%" stop-color="#0f1525"/></linearGradient>
<filter id="shadow"><feDropShadow dx="0" dy="2" stdDeviation="4" flood-opacity="0.3"/></filter>
</defs>
<rect width="100%" height="100%" fill="url(#bg)"/>
<text x="40" y="45" font-family="system-ui, sans-serif" font-size="22" font-weight="700" fill="#f3f4f6">Single Source of Truth</text>
<line x1="40" y1="58" x2="400" y2="58" stroke="#06b6d4" stroke-width="2" opacity="0.6"/>
<text x="600.0" y="90" text-anchor="middle" font-family="system-ui" font-size="26" font-weight="700" fill="#f3f4f6">Single Source of Truth</text>
<text x="600.0" y="115" text-anchor="middle" font-family="monospace" font-size="11" fill="#9ca3af">Every frontend value originates from pipeline_output.json</text>
<rect x="425" y="160" width="350" height="55" rx="8" fill="#111827" stroke="#8b5cf6" stroke-opacity="0.3" filter="url(#shadow)"/>
<text x="600.0" y="182.5" text-anchor="middle" font-family="monospace" font-size="11" font-weight="700" fill="#8b5cf6">Optimization Pipeline</text>
<text x="600.0" y="199.5" text-anchor="middle" font-family="monospace" font-size="8" fill="#9ca3af">GA · MILP · AI Agents</text>
<line x1="600" y1="215" x2="600" y2="240" stroke="#06b6d4" stroke-width="1.5" stroke-dasharray="6,3" opacity="0.5"/>
<polygon points="594,236 600,240 594,244" fill="#06b6d4" opacity="0.5"/>
<rect x="425" y="240" width="350" height="55" rx="8" fill="#111827" stroke="#06b6d4" stroke-opacity="0.3" filter="url(#shadow)"/>
<text x="600.0" y="262.5" text-anchor="middle" font-family="monospace" font-size="11" font-weight="700" fill="#06b6d4">pipeline_output.json</text>
<text x="600.0" y="279.5" text-anchor="middle" font-family="monospace" font-size="8" fill="#9ca3af">309/313 assertions</text>
<line x1="600" y1="295" x2="600" y2="320" stroke="#06b6d4" stroke-width="1.5" stroke-dasharray="6,3" opacity="0.5"/>
<polygon points="594,316 600,320 594,324" fill="#06b6d4" opacity="0.5"/>
<rect x="425" y="320" width="350" height="55" rx="8" fill="#111827" stroke="#10b981" stroke-opacity="0.3" filter="url(#shadow)"/>
<text x="600.0" y="342.5" text-anchor="middle" font-family="monospace" font-size="11" font-weight="700" fill="#10b981">Runtime Adapter</text>
<text x="600.0" y="359.5" text-anchor="middle" font-family="monospace" font-size="8" fill="#9ca3af">runtimeAdapter.js — normalizeGlobal()</text>
<line x1="600" y1="375" x2="600" y2="400" stroke="#06b6d4" stroke-width="1.5" stroke-dasharray="6,3" opacity="0.5"/>
<polygon points="594,396 600,400 594,404" fill="#06b6d4" opacity="0.5"/>
<rect x="425" y="400" width="350" height="55" rx="8" fill="#111827" stroke="#06b6d4" stroke-opacity="0.3" filter="url(#shadow)"/>
<text x="600.0" y="422.5" text-anchor="middle" font-family="monospace" font-size="11" font-weight="700" fill="#06b6d4">React State</text>
<text x="600.0" y="439.5" text-anchor="middle" font-family="monospace" font-size="8" fill="#9ca3af">useOptimizationState.js — single hook</text>
<line x1="600" y1="455" x2="600" y2="480" stroke="#06b6d4" stroke-width="1.5" stroke-dasharray="6,3" opacity="0.5"/>
<polygon points="594,476 600,480 594,484" fill="#06b6d4" opacity="0.5"/>
<rect x="425" y="480" width="350" height="55" rx="8" fill="#111827" stroke="#10b981" stroke-opacity="0.3" filter="url(#shadow)"/>
<text x="600.0" y="502.5" text-anchor="middle" font-family="monospace" font-size="11" font-weight="700" fill="#10b981">Dashboard</text>
<text x="600.0" y="519.5" text-anchor="middle" font-family="monospace" font-size="8" fill="#9ca3af">33 components · 14 tabs</text>
<text x="970" y="200" font-family="monospace" font-size="11" fill="#10b981">&#10003; No hardcoded metrics</text>
<text x="970" y="265" font-family="monospace" font-size="11" fill="#10b981">&#10003; Runtime synchronized</text>
<text x="970" y="330" font-family="monospace" font-size="11" fill="#10b981">&#10003; Live execution output</text>
<text x="970" y="395" font-family="monospace" font-size="11" fill="#10b981">&#10003; Frontend reflects backend</text>
<rect x="60" y="470" width="520" height="370" rx="8" fill="#111827" stroke="#1f2937"/>
<text x="75" y="495" font-family="monospace" font-size="10" font-weight="700" fill="#06b6d4">pipeline_output.json (runtime truth)</text>
<text x="75" y="520" font-family="monospace" font-size="8" fill="#6b7280">{"summary_metrics":{"weekly_profit":901690372,"coverage":52.5,"total_services":5</text>
<text x="75" y="540" font-family="monospace" font-size="8" fill="#6b7280">11,"total_runtime":499.3},"test_scorecard":{"assertions_passed":309,"total":313,</text>
<text x="75" y="560" font-family="monospace" font-size="8" fill="#6b7280">"score":98.7}}</text>
</svg>